<svg width="59" height="59" viewBox="0 0 59 59" fill="none" xmlns="http://www.w3.org/2000/svg">
<path d="M47.6919 18.0442L40.9561 11.3083C40.0994 10.4405 38.9401 9.93789 37.7211 9.90581C36.5021 9.87373 35.318 10.3147 34.4169 11.1363L29.5002 16.0529L26.329 13.0046C26.0998 12.7754 25.8277 12.5936 25.5282 12.4695C25.2287 12.3455 24.9077 12.2816 24.5836 12.2816C23.9289 12.2816 23.3011 12.5417 22.8382 13.0046C22.6089 13.2338 22.4271 13.5059 22.3031 13.8054C22.179 14.1049 22.1152 14.4258 22.1152 14.75C22.1152 15.4047 22.3752 16.0325 22.8382 16.4954L25.8865 19.6667L12.2919 33.2612C11.4973 34.0626 11.0025 35.1129 10.8907 36.2358L9.83357 46.4871C9.80046 46.8471 9.84718 47.2101 9.97041 47.55C10.0936 47.89 10.2903 48.1985 10.5465 48.4537C10.7762 48.6816 11.0486 48.8618 11.3481 48.9842C11.6477 49.1065 11.9684 49.1685 12.2919 49.1667H12.5132L22.7644 48.2325C23.8874 48.1206 24.9377 47.6259 25.739 46.8312L39.4565 33.1137L42.5048 36.1621C42.7334 36.3925 43.0053 36.5754 43.3048 36.7002C43.6044 36.825 43.9257 36.8892 44.2502 36.8892C44.5748 36.8892 44.8961 36.825 45.1957 36.7002C45.4952 36.5754 45.7671 36.3925 45.9957 36.1621C46.2261 35.9335 46.409 35.6616 46.5338 35.3621C46.6586 35.0625 46.7228 34.7412 46.7228 34.4167C46.7228 34.0921 46.6586 33.7708 46.5338 33.4712C46.409 33.1717 46.2261 32.8998 45.9957 32.6712L42.9473 29.6229L47.864 24.7062C48.7227 23.799 49.1868 22.5884 49.1546 21.3396C49.1223 20.0909 48.5963 18.9058 47.6919 18.0442V18.0442ZM15.7336 36.7275L29.5002 23.01L36.1132 29.6475L29.2544 36.5062" fill="white"/>
</svg>
